<mxfile host="app.diagrams.net" agent="Mozilla/5.0 (Windows NT 10.0; Win64; x64) AppleWebKit/537.36 (KHTML, like Gecko) Chrome/136.0.0.0 Safari/537.36" version="27.1.1">
  <diagram name="Page-1" id="taYUtSJ_4CDuhA6wjiIW">
    <mxGraphModel dx="4773" dy="3417" grid="1" gridSize="10" guides="1" tooltips="1" connect="1" arrows="1" fold="1" page="1" pageScale="1" pageWidth="850" pageHeight="1100" math="0" shadow="0" adaptiveColors="auto">
      <root>
        <mxCell id="0" />
        <mxCell id="1" parent="0" />
        <mxCell id="AHNwK2kC-aCpybcXHfES-3" value="" style="rounded=0;whiteSpace=wrap;html=1;strokeColor=none;fillColor=light-dark(#FFFFFF,#00CC00);opacity=20;movable=0;resizable=0;rotatable=0;deletable=0;editable=0;locked=1;connectable=0;" parent="1" vertex="1">
          <mxGeometry x="-600" y="480" width="480" height="440" as="geometry" />
        </mxCell>
        <mxCell id="h_4dqQD72bOemCukOD2A-11" value="&lt;h1 style=&quot;margin-top: 0px;&quot;&gt;Level 3&lt;/h1&gt;&lt;div&gt;NEW ENEMY TYPE : MAGES - AOE attacks that spawn from the sky, HOMING PROJECTILES for tier 3&lt;/div&gt;" style="text;html=1;whiteSpace=wrap;overflow=hidden;rounded=0;" parent="1" vertex="1">
          <mxGeometry x="-620" y="991.45" width="620" height="310" as="geometry" />
        </mxCell>
        <mxCell id="E4qFbeiB4ODEOkEXqFHY-1" value="&lt;h1 style=&quot;margin-top: 0px;&quot;&gt;&lt;span style=&quot;background-color: transparent; color: light-dark(rgb(0, 0, 0), rgb(255, 255, 255));&quot;&gt;UI&lt;/span&gt;&lt;/h1&gt;" style="text;html=1;whiteSpace=wrap;overflow=hidden;rounded=0;align=center;" parent="1" vertex="1">
          <mxGeometry x="35" y="1010" width="180" height="40" as="geometry" />
        </mxCell>
        <mxCell id="E4qFbeiB4ODEOkEXqFHY-2" value="" style="rounded=0;whiteSpace=wrap;html=1;" parent="1" vertex="1">
          <mxGeometry x="115" y="1050" width="360" height="240" as="geometry" />
        </mxCell>
        <mxCell id="E4qFbeiB4ODEOkEXqFHY-3" value="" style="rounded=0;whiteSpace=wrap;html=1;" parent="1" vertex="1">
          <mxGeometry x="125" y="1060" width="120" height="10" as="geometry" />
        </mxCell>
        <mxCell id="E4qFbeiB4ODEOkEXqFHY-4" value="" style="rounded=0;whiteSpace=wrap;html=1;fillColor=#60a917;fontColor=#ffffff;strokeColor=none;movable=1;resizable=1;rotatable=1;deletable=1;editable=1;locked=0;connectable=1;" parent="1" vertex="1">
          <mxGeometry x="126" y="1061" width="87" height="8" as="geometry" />
        </mxCell>
        <mxCell id="E4qFbeiB4ODEOkEXqFHY-5" value="" style="ellipse;whiteSpace=wrap;html=1;aspect=fixed;strokeWidth=4;" parent="1" vertex="1">
          <mxGeometry x="130" y="1253" width="30" height="30" as="geometry" />
        </mxCell>
        <mxCell id="E4qFbeiB4ODEOkEXqFHY-7" value="&lt;font face=&quot;Tahoma&quot;&gt;8.2&lt;/font&gt;" style="text;html=1;align=center;verticalAlign=middle;whiteSpace=wrap;rounded=0;" parent="1" vertex="1">
          <mxGeometry x="115" y="1251" width="60" height="30" as="geometry" />
        </mxCell>
        <mxCell id="E4qFbeiB4ODEOkEXqFHY-8" value="minimap overlay" style="rounded=0;whiteSpace=wrap;html=1;" parent="1" vertex="1">
          <mxGeometry x="388" y="1057" width="80" height="50" as="geometry" />
        </mxCell>
        <mxCell id="E4qFbeiB4ODEOkEXqFHY-9" value="" style="shape=flexArrow;endArrow=classic;html=1;rounded=0;width=5.714285714285714;endSize=3.095238095238095;endWidth=11.564625850340136;" parent="1" edge="1">
          <mxGeometry width="50" height="50" relative="1" as="geometry">
            <mxPoint x="65" y="1265" as="sourcePoint" />
            <mxPoint x="115" y="1265" as="targetPoint" />
          </mxGeometry>
        </mxCell>
        <mxCell id="E4qFbeiB4ODEOkEXqFHY-10" value="" style="shape=flexArrow;endArrow=classic;html=1;rounded=0;width=5.714285714285714;endSize=3.095238095238095;endWidth=11.564625850340136;" parent="1" edge="1">
          <mxGeometry width="50" height="50" relative="1" as="geometry">
            <mxPoint x="65" y="1065" as="sourcePoint" />
            <mxPoint x="115" y="1064.76" as="targetPoint" />
          </mxGeometry>
        </mxCell>
        <mxCell id="E4qFbeiB4ODEOkEXqFHY-11" value="&lt;div&gt;&lt;font style=&quot;font-size: 8px;&quot;&gt;Ability&amp;nbsp;&lt;/font&gt;&lt;span style=&quot;font-size: 8px; background-color: transparent; color: light-dark(rgb(0, 0, 0), rgb(255, 255, 255));&quot;&gt;Cooldown&lt;/span&gt;&lt;/div&gt;" style="text;html=1;align=center;verticalAlign=middle;whiteSpace=wrap;rounded=0;" parent="1" vertex="1">
          <mxGeometry x="-15" y="1251" width="90" height="30" as="geometry" />
        </mxCell>
        <mxCell id="E4qFbeiB4ODEOkEXqFHY-12" value="&lt;div&gt;&lt;span style=&quot;font-size: 8px;&quot;&gt;Health bar&lt;/span&gt;&lt;/div&gt;" style="text;html=1;align=center;verticalAlign=middle;whiteSpace=wrap;rounded=0;" parent="1" vertex="1">
          <mxGeometry x="-15" y="1048" width="90" height="30" as="geometry" />
        </mxCell>
        <mxCell id="E4qFbeiB4ODEOkEXqFHY-19" value="" style="whiteSpace=wrap;html=1;aspect=fixed;" parent="1" vertex="1">
          <mxGeometry x="125" y="1077" width="23" height="23" as="geometry" />
        </mxCell>
        <mxCell id="E4qFbeiB4ODEOkEXqFHY-20" value="" style="whiteSpace=wrap;html=1;aspect=fixed;" parent="1" vertex="1">
          <mxGeometry x="158" y="1077" width="23" height="23" as="geometry" />
        </mxCell>
        <mxCell id="E4qFbeiB4ODEOkEXqFHY-21" value="" style="whiteSpace=wrap;html=1;aspect=fixed;" parent="1" vertex="1">
          <mxGeometry x="192" y="1077" width="23" height="23" as="geometry" />
        </mxCell>
        <mxCell id="E4qFbeiB4ODEOkEXqFHY-22" value="" style="shape=flexArrow;endArrow=classic;html=1;rounded=0;width=5.714285714285714;endSize=3.095238095238095;endWidth=11.564625850340136;" parent="1" edge="1">
          <mxGeometry width="50" height="50" relative="1" as="geometry">
            <mxPoint x="60" y="1091.8" as="sourcePoint" />
            <mxPoint x="110" y="1091.8" as="targetPoint" />
          </mxGeometry>
        </mxCell>
        <mxCell id="E4qFbeiB4ODEOkEXqFHY-23" value="&lt;span style=&quot;font-size: 8px;&quot;&gt;Level/Upgrades display&lt;/span&gt;" style="text;html=1;align=center;verticalAlign=middle;whiteSpace=wrap;rounded=0;" parent="1" vertex="1">
          <mxGeometry x="-35" y="1077" width="90" height="30" as="geometry" />
        </mxCell>
        <mxCell id="E4qFbeiB4ODEOkEXqFHY-24" value="" style="triangle;whiteSpace=wrap;html=1;rotation=-90;strokeColor=none;" parent="1" vertex="1">
          <mxGeometry x="137.20000000000005" y="1258.45" width="16.87" height="43" as="geometry" />
        </mxCell>
        <mxCell id="E4qFbeiB4ODEOkEXqFHY-25" value="&lt;div&gt;&lt;font style=&quot;font-size: 7px;&quot;&gt;player&lt;/font&gt;&lt;/div&gt;" style="shape=umlActor;verticalLabelPosition=bottom;verticalAlign=top;html=1;outlineConnect=0;rounded=0;" parent="1" vertex="1">
          <mxGeometry x="288.75" y="1157.5" width="12.5" height="25" as="geometry" />
        </mxCell>
        <mxCell id="0Q67ihyZQGFLPFBbPp2H-2" value="" style="endArrow=none;html=1;rounded=0;" parent="1" edge="1">
          <mxGeometry width="50" height="50" relative="1" as="geometry">
            <mxPoint x="-600" y="920" as="sourcePoint" />
            <mxPoint x="-600" y="480" as="targetPoint" />
          </mxGeometry>
        </mxCell>
        <mxCell id="0Q67ihyZQGFLPFBbPp2H-3" value="" style="endArrow=none;html=1;rounded=0;" parent="1" edge="1">
          <mxGeometry width="50" height="50" relative="1" as="geometry">
            <mxPoint x="-600" y="480" as="sourcePoint" />
            <mxPoint x="-120" y="480" as="targetPoint" />
          </mxGeometry>
        </mxCell>
        <mxCell id="0Q67ihyZQGFLPFBbPp2H-4" value="" style="endArrow=none;html=1;rounded=0;" parent="1" edge="1">
          <mxGeometry width="50" height="50" relative="1" as="geometry">
            <mxPoint x="-600" y="920" as="sourcePoint" />
            <mxPoint x="-120" y="920" as="targetPoint" />
          </mxGeometry>
        </mxCell>
        <mxCell id="0Q67ihyZQGFLPFBbPp2H-5" value="" style="endArrow=none;html=1;rounded=0;" parent="1" edge="1">
          <mxGeometry width="50" height="50" relative="1" as="geometry">
            <mxPoint x="-120" y="600" as="sourcePoint" />
            <mxPoint x="-120" y="480" as="targetPoint" />
          </mxGeometry>
        </mxCell>
        <mxCell id="0Q67ihyZQGFLPFBbPp2H-6" value="" style="endArrow=none;html=1;rounded=0;" parent="1" edge="1">
          <mxGeometry width="50" height="50" relative="1" as="geometry">
            <mxPoint x="-120" y="920" as="sourcePoint" />
            <mxPoint x="-120" y="800" as="targetPoint" />
          </mxGeometry>
        </mxCell>
        <mxCell id="0Q67ihyZQGFLPFBbPp2H-7" value="" style="endArrow=none;html=1;rounded=0;" parent="1" edge="1">
          <mxGeometry width="50" height="50" relative="1" as="geometry">
            <mxPoint x="-120" y="600" as="sourcePoint" />
            <mxPoint x="160" y="600" as="targetPoint" />
          </mxGeometry>
        </mxCell>
        <mxCell id="0Q67ihyZQGFLPFBbPp2H-8" value="" style="endArrow=none;html=1;rounded=0;" parent="1" edge="1">
          <mxGeometry width="50" height="50" relative="1" as="geometry">
            <mxPoint x="-120" y="800" as="sourcePoint" />
            <mxPoint x="160" y="800" as="targetPoint" />
          </mxGeometry>
        </mxCell>
        <mxCell id="0Q67ihyZQGFLPFBbPp2H-9" value="DOOR" style="rounded=0;whiteSpace=wrap;html=1;rotation=90;" parent="1" vertex="1">
          <mxGeometry x="60" y="670" width="200" height="60" as="geometry" />
        </mxCell>
        <mxCell id="0Q67ihyZQGFLPFBbPp2H-10" value="" style="endArrow=none;html=1;rounded=0;" parent="1" source="0Q67ihyZQGFLPFBbPp2H-9" edge="1">
          <mxGeometry width="50" height="50" relative="1" as="geometry">
            <mxPoint x="110" y="650" as="sourcePoint" />
            <mxPoint x="160" y="600" as="targetPoint" />
          </mxGeometry>
        </mxCell>
        <mxCell id="0Q67ihyZQGFLPFBbPp2H-11" value="" style="endArrow=none;html=1;rounded=0;entryX=1;entryY=0.5;entryDx=0;entryDy=0;" parent="1" target="0Q67ihyZQGFLPFBbPp2H-9" edge="1">
          <mxGeometry width="50" height="50" relative="1" as="geometry">
            <mxPoint x="160" y="800" as="sourcePoint" />
            <mxPoint x="160" y="760" as="targetPoint" />
          </mxGeometry>
        </mxCell>
        <mxCell id="0Q67ihyZQGFLPFBbPp2H-12" value="" style="endArrow=none;html=1;rounded=0;" parent="1" edge="1">
          <mxGeometry width="50" height="50" relative="1" as="geometry">
            <mxPoint x="160" y="600" as="sourcePoint" />
            <mxPoint x="160" y="480" as="targetPoint" />
          </mxGeometry>
        </mxCell>
        <mxCell id="0Q67ihyZQGFLPFBbPp2H-13" value="" style="endArrow=none;html=1;rounded=0;" parent="1" edge="1">
          <mxGeometry width="50" height="50" relative="1" as="geometry">
            <mxPoint x="159.41" y="920" as="sourcePoint" />
            <mxPoint x="159.41" y="800" as="targetPoint" />
          </mxGeometry>
        </mxCell>
        <mxCell id="0Q67ihyZQGFLPFBbPp2H-14" value="" style="endArrow=none;html=1;rounded=0;" parent="1" edge="1">
          <mxGeometry width="50" height="50" relative="1" as="geometry">
            <mxPoint x="160" y="920" as="sourcePoint" />
            <mxPoint x="600" y="920" as="targetPoint" />
          </mxGeometry>
        </mxCell>
        <mxCell id="0Q67ihyZQGFLPFBbPp2H-15" value="" style="endArrow=none;html=1;rounded=0;" parent="1" edge="1">
          <mxGeometry width="50" height="50" relative="1" as="geometry">
            <mxPoint x="600" y="920" as="sourcePoint" />
            <mxPoint x="600" y="480" as="targetPoint" />
          </mxGeometry>
        </mxCell>
        <mxCell id="0Q67ihyZQGFLPFBbPp2H-16" value="" style="endArrow=none;html=1;rounded=0;" parent="1" edge="1">
          <mxGeometry width="50" height="50" relative="1" as="geometry">
            <mxPoint x="160" y="480" as="sourcePoint" />
            <mxPoint x="280" y="480" as="targetPoint" />
          </mxGeometry>
        </mxCell>
        <mxCell id="0Q67ihyZQGFLPFBbPp2H-17" value="" style="endArrow=none;html=1;rounded=0;" parent="1" edge="1">
          <mxGeometry width="50" height="50" relative="1" as="geometry">
            <mxPoint x="480" y="480" as="sourcePoint" />
            <mxPoint x="600" y="480" as="targetPoint" />
          </mxGeometry>
        </mxCell>
        <mxCell id="0Q67ihyZQGFLPFBbPp2H-18" value="" style="endArrow=none;html=1;rounded=0;" parent="1" edge="1">
          <mxGeometry width="50" height="50" relative="1" as="geometry">
            <mxPoint x="280" y="480" as="sourcePoint" />
            <mxPoint x="280" y="40" as="targetPoint" />
          </mxGeometry>
        </mxCell>
        <mxCell id="0Q67ihyZQGFLPFBbPp2H-19" value="" style="endArrow=none;html=1;rounded=0;" parent="1" edge="1">
          <mxGeometry width="50" height="50" relative="1" as="geometry">
            <mxPoint x="480" y="480" as="sourcePoint" />
            <mxPoint x="480" y="240" as="targetPoint" />
          </mxGeometry>
        </mxCell>
        <mxCell id="0Q67ihyZQGFLPFBbPp2H-20" value="" style="endArrow=none;html=1;rounded=0;" parent="1" edge="1">
          <mxGeometry width="50" height="50" relative="1" as="geometry">
            <mxPoint x="278" y="40" as="sourcePoint" />
            <mxPoint x="720" y="40" as="targetPoint" />
          </mxGeometry>
        </mxCell>
        <mxCell id="0Q67ihyZQGFLPFBbPp2H-21" value="" style="endArrow=none;html=1;rounded=0;" parent="1" edge="1">
          <mxGeometry width="50" height="50" relative="1" as="geometry">
            <mxPoint x="480" y="240" as="sourcePoint" />
            <mxPoint x="720" y="240" as="targetPoint" />
          </mxGeometry>
        </mxCell>
        <mxCell id="0Q67ihyZQGFLPFBbPp2H-22" value="DOOR" style="rounded=0;whiteSpace=wrap;html=1;rotation=90;" parent="1" vertex="1">
          <mxGeometry x="620" y="110" width="200" height="60" as="geometry" />
        </mxCell>
        <mxCell id="0Q67ihyZQGFLPFBbPp2H-24" value="" style="endArrow=none;html=1;rounded=0;entryX=1;entryY=0.5;entryDx=0;entryDy=0;" parent="1" target="0Q67ihyZQGFLPFBbPp2H-22" edge="1">
          <mxGeometry width="50" height="50" relative="1" as="geometry">
            <mxPoint x="720" y="240" as="sourcePoint" />
            <mxPoint x="770" y="190" as="targetPoint" />
          </mxGeometry>
        </mxCell>
        <mxCell id="0Q67ihyZQGFLPFBbPp2H-26" value="" style="endArrow=none;html=1;rounded=0;" parent="1" edge="1">
          <mxGeometry width="50" height="50" relative="1" as="geometry">
            <mxPoint x="720" y="360" as="sourcePoint" />
            <mxPoint x="720" y="240" as="targetPoint" />
          </mxGeometry>
        </mxCell>
        <mxCell id="0Q67ihyZQGFLPFBbPp2H-27" value="" style="endArrow=none;html=1;rounded=0;" parent="1" edge="1">
          <mxGeometry width="50" height="50" relative="1" as="geometry">
            <mxPoint x="719.58" y="40" as="sourcePoint" />
            <mxPoint x="720" y="-80" as="targetPoint" />
          </mxGeometry>
        </mxCell>
        <mxCell id="0Q67ihyZQGFLPFBbPp2H-28" value="" style="endArrow=none;html=1;rounded=0;" parent="1" edge="1">
          <mxGeometry width="50" height="50" relative="1" as="geometry">
            <mxPoint x="720" y="-80" as="sourcePoint" />
            <mxPoint x="1160" y="-80" as="targetPoint" />
          </mxGeometry>
        </mxCell>
        <mxCell id="0Q67ihyZQGFLPFBbPp2H-30" value="" style="endArrow=none;html=1;rounded=0;" parent="1" edge="1">
          <mxGeometry width="50" height="50" relative="1" as="geometry">
            <mxPoint x="1160" y="360" as="sourcePoint" />
            <mxPoint x="1160" y="-80" as="targetPoint" />
          </mxGeometry>
        </mxCell>
        <mxCell id="0Q67ihyZQGFLPFBbPp2H-31" value="" style="endArrow=none;html=1;rounded=0;" parent="1" edge="1">
          <mxGeometry width="50" height="50" relative="1" as="geometry">
            <mxPoint x="720" y="360" as="sourcePoint" />
            <mxPoint x="840" y="360" as="targetPoint" />
          </mxGeometry>
        </mxCell>
        <mxCell id="0Q67ihyZQGFLPFBbPp2H-32" value="" style="endArrow=none;html=1;rounded=0;" parent="1" edge="1">
          <mxGeometry width="50" height="50" relative="1" as="geometry">
            <mxPoint x="1040" y="360" as="sourcePoint" />
            <mxPoint x="1160" y="360" as="targetPoint" />
          </mxGeometry>
        </mxCell>
        <mxCell id="0Q67ihyZQGFLPFBbPp2H-33" value="" style="endArrow=none;html=1;rounded=0;" parent="1" edge="1">
          <mxGeometry width="50" height="50" relative="1" as="geometry">
            <mxPoint x="840" y="800" as="sourcePoint" />
            <mxPoint x="840" y="360" as="targetPoint" />
          </mxGeometry>
        </mxCell>
        <mxCell id="0Q67ihyZQGFLPFBbPp2H-34" value="" style="endArrow=none;html=1;rounded=0;" parent="1" edge="1">
          <mxGeometry width="50" height="50" relative="1" as="geometry">
            <mxPoint x="1040" y="601.1428571428571" as="sourcePoint" />
            <mxPoint x="1040" y="360" as="targetPoint" />
          </mxGeometry>
        </mxCell>
        <mxCell id="0Q67ihyZQGFLPFBbPp2H-35" value="" style="endArrow=none;html=1;rounded=0;" parent="1" edge="1">
          <mxGeometry width="50" height="50" relative="1" as="geometry">
            <mxPoint x="840" y="800" as="sourcePoint" />
            <mxPoint x="1320" y="800" as="targetPoint" />
          </mxGeometry>
        </mxCell>
        <mxCell id="0Q67ihyZQGFLPFBbPp2H-36" value="" style="endArrow=none;html=1;rounded=0;" parent="1" edge="1">
          <mxGeometry width="50" height="50" relative="1" as="geometry">
            <mxPoint x="1040" y="600" as="sourcePoint" />
            <mxPoint x="1320" y="600" as="targetPoint" />
          </mxGeometry>
        </mxCell>
        <mxCell id="0Q67ihyZQGFLPFBbPp2H-37" value="" style="endArrow=none;html=1;rounded=0;" parent="1" edge="1">
          <mxGeometry width="50" height="50" relative="1" as="geometry">
            <mxPoint x="1320" y="600" as="sourcePoint" />
            <mxPoint x="1320" y="240" as="targetPoint" />
          </mxGeometry>
        </mxCell>
        <mxCell id="0Q67ihyZQGFLPFBbPp2H-38" value="" style="endArrow=none;html=1;rounded=0;" parent="1" edge="1">
          <mxGeometry width="50" height="50" relative="1" as="geometry">
            <mxPoint x="1320" y="1160" as="sourcePoint" />
            <mxPoint x="1320" y="800" as="targetPoint" />
          </mxGeometry>
        </mxCell>
        <mxCell id="0Q67ihyZQGFLPFBbPp2H-39" value="" style="endArrow=none;html=1;rounded=0;" parent="1" edge="1">
          <mxGeometry width="50" height="50" relative="1" as="geometry">
            <mxPoint x="2160" y="1160" as="sourcePoint" />
            <mxPoint x="1320" y="1160" as="targetPoint" />
          </mxGeometry>
        </mxCell>
        <mxCell id="0Q67ihyZQGFLPFBbPp2H-40" value="" style="endArrow=none;html=1;rounded=0;" parent="1" edge="1">
          <mxGeometry width="50" height="50" relative="1" as="geometry">
            <mxPoint x="2160" y="240" as="sourcePoint" />
            <mxPoint x="1320" y="240" as="targetPoint" />
          </mxGeometry>
        </mxCell>
        <mxCell id="0Q67ihyZQGFLPFBbPp2H-41" value="" style="endArrow=none;html=1;rounded=0;" parent="1" edge="1">
          <mxGeometry width="50" height="50" relative="1" as="geometry">
            <mxPoint x="2160" y="1160" as="sourcePoint" />
            <mxPoint x="2160" y="240" as="targetPoint" />
          </mxGeometry>
        </mxCell>
        <mxCell id="0Q67ihyZQGFLPFBbPp2H-42" value="" style="ellipse;whiteSpace=wrap;html=1;aspect=fixed;fillColor=light-dark(#FFFFFF,#99004D);" parent="1" vertex="1">
          <mxGeometry x="1702.5" y="660" width="80" height="80" as="geometry" />
        </mxCell>
        <mxCell id="AHNwK2kC-aCpybcXHfES-1" value="" style="rhombus;whiteSpace=wrap;html=1;" parent="1" vertex="1">
          <mxGeometry x="-560" y="630" width="80" height="80" as="geometry" />
        </mxCell>
        <mxCell id="AHNwK2kC-aCpybcXHfES-4" value="SPAWN" style="text;html=1;align=center;verticalAlign=middle;whiteSpace=wrap;rounded=0;" parent="1" vertex="1">
          <mxGeometry x="-550" y="710" width="60" height="30" as="geometry" />
        </mxCell>
        <mxCell id="AHNwK2kC-aCpybcXHfES-5" value="" style="ellipse;whiteSpace=wrap;html=1;aspect=fixed;" parent="1" vertex="1">
          <mxGeometry x="-200" y="840" width="40" height="40" as="geometry" />
        </mxCell>
        <mxCell id="AHNwK2kC-aCpybcXHfES-6" value="Shop" style="text;html=1;align=center;verticalAlign=middle;whiteSpace=wrap;rounded=0;" parent="1" vertex="1">
          <mxGeometry x="-210" y="880" width="60" height="30" as="geometry" />
        </mxCell>
        <mxCell id="AHNwK2kC-aCpybcXHfES-8" value="" style="ellipse;whiteSpace=wrap;html=1;aspect=fixed;fillColor=light-dark(#FFFFFF,#FF3333);" parent="1" vertex="1">
          <mxGeometry x="435" y="510" width="40" height="40" as="geometry" />
        </mxCell>
        <mxCell id="AHNwK2kC-aCpybcXHfES-9" value="Enemy&lt;div&gt;TIER 1 -&lt;/div&gt;&lt;div&gt;Mage&lt;/div&gt;" style="text;html=1;align=center;verticalAlign=middle;whiteSpace=wrap;rounded=0;" parent="1" vertex="1">
          <mxGeometry x="425" y="560" width="60" height="30" as="geometry" />
        </mxCell>
        <mxCell id="AHNwK2kC-aCpybcXHfES-10" value="" style="ellipse;whiteSpace=wrap;html=1;aspect=fixed;fillColor=light-dark(#FFFFFF,#FF3333);" parent="1" vertex="1">
          <mxGeometry x="520" y="770" width="40" height="40" as="geometry" />
        </mxCell>
        <mxCell id="AHNwK2kC-aCpybcXHfES-11" value="Enemy&lt;div&gt;TIER 1 -&lt;/div&gt;&lt;div&gt;Mage&lt;/div&gt;" style="text;html=1;align=center;verticalAlign=middle;whiteSpace=wrap;rounded=0;" parent="1" vertex="1">
          <mxGeometry x="510" y="820" width="60" height="30" as="geometry" />
        </mxCell>
        <mxCell id="AHNwK2kC-aCpybcXHfES-12" value="" style="ellipse;whiteSpace=wrap;html=1;aspect=fixed;fillColor=light-dark(#FFFFFF,#FF3333);" parent="1" vertex="1">
          <mxGeometry x="248" y="540" width="40" height="40" as="geometry" />
        </mxCell>
        <mxCell id="AHNwK2kC-aCpybcXHfES-13" value="Enemy&lt;div&gt;TIER 1 -&lt;/div&gt;&lt;div&gt;Melee&lt;/div&gt;" style="text;html=1;align=center;verticalAlign=middle;whiteSpace=wrap;rounded=0;" parent="1" vertex="1">
          <mxGeometry x="238" y="590" width="60" height="30" as="geometry" />
        </mxCell>
        <mxCell id="AHNwK2kC-aCpybcXHfES-14" value="" style="ellipse;whiteSpace=wrap;html=1;aspect=fixed;fillColor=light-dark(#FFFFFF,#FF3333);" parent="1" vertex="1">
          <mxGeometry x="295" y="750" width="40" height="40" as="geometry" />
        </mxCell>
        <mxCell id="AHNwK2kC-aCpybcXHfES-15" value="Enemy&lt;div&gt;TIER 1 -&lt;/div&gt;&lt;div&gt;Melee&lt;/div&gt;" style="text;html=1;align=center;verticalAlign=middle;whiteSpace=wrap;rounded=0;" parent="1" vertex="1">
          <mxGeometry x="285" y="800" width="60" height="30" as="geometry" />
        </mxCell>
        <mxCell id="AHNwK2kC-aCpybcXHfES-16" value="" style="ellipse;whiteSpace=wrap;html=1;aspect=fixed;fillColor=light-dark(#FFFFFF,#FF3333);" parent="1" vertex="1">
          <mxGeometry x="1070" y="-60" width="40" height="40" as="geometry" />
        </mxCell>
        <mxCell id="AHNwK2kC-aCpybcXHfES-17" value="Enemy&lt;div&gt;TIER 1 -&lt;/div&gt;&lt;div&gt;Mage&lt;/div&gt;" style="text;html=1;align=center;verticalAlign=middle;whiteSpace=wrap;rounded=0;" parent="1" vertex="1">
          <mxGeometry x="1060" y="-10" width="60" height="30" as="geometry" />
        </mxCell>
        <mxCell id="AHNwK2kC-aCpybcXHfES-20" value="" style="ellipse;whiteSpace=wrap;html=1;aspect=fixed;fillColor=light-dark(#FFFFFF,#FF3333);" parent="1" vertex="1">
          <mxGeometry x="1040" y="220" width="40" height="40" as="geometry" />
        </mxCell>
        <mxCell id="AHNwK2kC-aCpybcXHfES-21" value="Enemy&lt;div&gt;TIER 1 -&lt;/div&gt;&lt;div&gt;Mage&lt;/div&gt;" style="text;html=1;align=center;verticalAlign=middle;whiteSpace=wrap;rounded=0;" parent="1" vertex="1">
          <mxGeometry x="1030" y="270" width="60" height="30" as="geometry" />
        </mxCell>
        <mxCell id="AHNwK2kC-aCpybcXHfES-22" value="" style="ellipse;whiteSpace=wrap;html=1;aspect=fixed;fillColor=light-dark(#FFFFFF,#FFFF00);" parent="1" vertex="1">
          <mxGeometry x="917.5" y="80" width="60" height="60" as="geometry" />
        </mxCell>
        <mxCell id="AHNwK2kC-aCpybcXHfES-23" value="Enemy&lt;div&gt;Tier 2 -&amp;nbsp;&lt;/div&gt;&lt;div&gt;Mage&lt;/div&gt;" style="text;html=1;align=center;verticalAlign=middle;whiteSpace=wrap;rounded=0;" parent="1" vertex="1">
          <mxGeometry x="917.5" y="150" width="60" height="30" as="geometry" />
        </mxCell>
        <mxCell id="AHNwK2kC-aCpybcXHfES-24" value="TIER 3-&lt;div&gt;Mage&lt;/div&gt;" style="text;html=1;align=center;verticalAlign=middle;resizable=0;points=[];autosize=1;strokeColor=none;fillColor=none;" parent="1" vertex="1">
          <mxGeometry x="1712.5" y="750" width="60" height="40" as="geometry" />
        </mxCell>
        <mxCell id="AHNwK2kC-aCpybcXHfES-25" value="DOOR" style="rounded=0;whiteSpace=wrap;html=1;rotation=90;direction=south;" parent="1" vertex="1">
          <mxGeometry x="347" y="355" width="60" height="205" as="geometry" />
        </mxCell>
        <mxCell id="AHNwK2kC-aCpybcXHfES-26" value="DOOR" style="rounded=0;whiteSpace=wrap;html=1;rotation=0;" parent="1" vertex="1">
          <mxGeometry x="840" y="340" width="200" height="60" as="geometry" />
        </mxCell>
        <mxCell id="AHNwK2kC-aCpybcXHfES-27" value="DOOR" style="rounded=0;whiteSpace=wrap;html=1;rotation=90;" parent="1" vertex="1">
          <mxGeometry x="1220" y="670" width="200" height="60" as="geometry" />
        </mxCell>
        <mxCell id="_PuXTlX4eswYH-ud0qcQ-9" style="edgeStyle=orthogonalEdgeStyle;rounded=0;orthogonalLoop=1;jettySize=auto;html=1;exitX=0.5;exitY=1;exitDx=0;exitDy=0;entryX=0.5;entryY=0;entryDx=0;entryDy=0;" edge="1" parent="1" target="_PuXTlX4eswYH-ud0qcQ-10">
          <mxGeometry relative="1" as="geometry">
            <mxPoint x="-335" y="1350" as="sourcePoint" />
          </mxGeometry>
        </mxCell>
        <mxCell id="_PuXTlX4eswYH-ud0qcQ-10" value="On Update" style="rounded=0;whiteSpace=wrap;html=1;" vertex="1" parent="1">
          <mxGeometry x="-395" y="1370" width="120" height="40" as="geometry" />
        </mxCell>
        <mxCell id="_PuXTlX4eswYH-ud0qcQ-11" style="edgeStyle=none;curved=1;rounded=0;orthogonalLoop=1;jettySize=auto;html=1;exitX=0.5;exitY=1;exitDx=0;exitDy=0;fontSize=12;startSize=8;endSize=8;" edge="1" parent="1" source="_PuXTlX4eswYH-ud0qcQ-12" target="_PuXTlX4eswYH-ud0qcQ-16">
          <mxGeometry relative="1" as="geometry" />
        </mxCell>
        <mxCell id="_PuXTlX4eswYH-ud0qcQ-12" value="&lt;div&gt;&lt;span style=&quot;background-color: transparent; color: light-dark(rgb(0, 0, 0), rgb(255, 255, 255));&quot;&gt;When Movement key is pressed&lt;/span&gt;&lt;/div&gt;" style="rhombus;whiteSpace=wrap;html=1;" vertex="1" parent="1">
          <mxGeometry x="-750" y="1470" width="190" height="80" as="geometry" />
        </mxCell>
        <mxCell id="_PuXTlX4eswYH-ud0qcQ-13" value="" style="endArrow=none;html=1;rounded=0;fontSize=12;startSize=8;endSize=8;curved=1;" edge="1" parent="1">
          <mxGeometry width="50" height="50" relative="1" as="geometry">
            <mxPoint x="-335" y="1450" as="sourcePoint" />
            <mxPoint x="-335" y="1410" as="targetPoint" />
          </mxGeometry>
        </mxCell>
        <mxCell id="_PuXTlX4eswYH-ud0qcQ-14" value="" style="endArrow=none;html=1;rounded=0;fontSize=12;startSize=8;endSize=8;curved=1;" edge="1" parent="1">
          <mxGeometry width="50" height="50" relative="1" as="geometry">
            <mxPoint x="-335" y="1450" as="sourcePoint" />
            <mxPoint x="-655" y="1450" as="targetPoint" />
          </mxGeometry>
        </mxCell>
        <mxCell id="_PuXTlX4eswYH-ud0qcQ-15" value="" style="endArrow=classic;html=1;rounded=0;fontSize=12;startSize=8;endSize=8;curved=1;entryX=0.5;entryY=0;entryDx=0;entryDy=0;" edge="1" parent="1" target="_PuXTlX4eswYH-ud0qcQ-12">
          <mxGeometry width="50" height="50" relative="1" as="geometry">
            <mxPoint x="-655" y="1450" as="sourcePoint" />
            <mxPoint x="-705" y="1460" as="targetPoint" />
          </mxGeometry>
        </mxCell>
        <mxCell id="_PuXTlX4eswYH-ud0qcQ-16" value="Move the player in that direction" style="rounded=0;whiteSpace=wrap;html=1;" vertex="1" parent="1">
          <mxGeometry x="-715" y="1610" width="120" height="60" as="geometry" />
        </mxCell>
        <mxCell id="_PuXTlX4eswYH-ud0qcQ-17" value="" style="endArrow=classic;html=1;rounded=0;fontSize=12;startSize=8;endSize=8;curved=1;" edge="1" parent="1">
          <mxGeometry width="50" height="50" relative="1" as="geometry">
            <mxPoint x="-455" y="1450" as="sourcePoint" />
            <mxPoint x="-455" y="1470" as="targetPoint" />
          </mxGeometry>
        </mxCell>
        <mxCell id="_PuXTlX4eswYH-ud0qcQ-18" value="" style="edgeStyle=none;curved=1;rounded=0;orthogonalLoop=1;jettySize=auto;html=1;fontSize=12;startSize=8;endSize=8;" edge="1" parent="1" source="_PuXTlX4eswYH-ud0qcQ-19" target="_PuXTlX4eswYH-ud0qcQ-24">
          <mxGeometry relative="1" as="geometry" />
        </mxCell>
        <mxCell id="_PuXTlX4eswYH-ud0qcQ-19" value="When interact with weapon" style="rhombus;whiteSpace=wrap;html=1;" vertex="1" parent="1">
          <mxGeometry x="-335" y="1470" width="160" height="80" as="geometry" />
        </mxCell>
        <mxCell id="_PuXTlX4eswYH-ud0qcQ-20" value="" style="endArrow=none;html=1;rounded=0;fontSize=12;startSize=8;endSize=8;curved=1;" edge="1" parent="1">
          <mxGeometry width="50" height="50" relative="1" as="geometry">
            <mxPoint x="-335" y="1450" as="sourcePoint" />
            <mxPoint x="2050" y="1450" as="targetPoint" />
          </mxGeometry>
        </mxCell>
        <mxCell id="_PuXTlX4eswYH-ud0qcQ-21" value="" style="endArrow=classic;html=1;rounded=0;fontSize=12;startSize=8;endSize=8;curved=1;" edge="1" parent="1">
          <mxGeometry width="50" height="50" relative="1" as="geometry">
            <mxPoint x="-255.11" y="1450" as="sourcePoint" />
            <mxPoint x="-255.11" y="1470" as="targetPoint" />
          </mxGeometry>
        </mxCell>
        <mxCell id="_PuXTlX4eswYH-ud0qcQ-22" style="edgeStyle=orthogonalEdgeStyle;rounded=0;orthogonalLoop=1;jettySize=auto;html=1;exitX=1;exitY=0.5;exitDx=0;exitDy=0;" edge="1" parent="1">
          <mxGeometry relative="1" as="geometry">
            <mxPoint x="-122.5" y="1640" as="targetPoint" />
            <mxPoint x="-202.5" y="1640" as="sourcePoint" />
          </mxGeometry>
        </mxCell>
        <mxCell id="_PuXTlX4eswYH-ud0qcQ-23" style="edgeStyle=orthogonalEdgeStyle;rounded=0;orthogonalLoop=1;jettySize=auto;html=1;exitX=0.5;exitY=1;exitDx=0;exitDy=0;" edge="1" parent="1" source="_PuXTlX4eswYH-ud0qcQ-24">
          <mxGeometry relative="1" as="geometry">
            <mxPoint x="-255" y="1730" as="targetPoint" />
          </mxGeometry>
        </mxCell>
        <mxCell id="_PuXTlX4eswYH-ud0qcQ-24" value="Do player have a weapon&lt;div&gt;equipped already&lt;/div&gt;" style="rhombus;whiteSpace=wrap;html=1;" vertex="1" parent="1">
          <mxGeometry x="-335" y="1600" width="160" height="80" as="geometry" />
        </mxCell>
        <mxCell id="_PuXTlX4eswYH-ud0qcQ-25" value="Equip Weapon&amp;nbsp;" style="rounded=0;whiteSpace=wrap;html=1;" vertex="1" parent="1">
          <mxGeometry x="-122.5" y="1610" width="120" height="60" as="geometry" />
        </mxCell>
        <mxCell id="_PuXTlX4eswYH-ud0qcQ-26" value="Swap Weapons" style="rounded=0;whiteSpace=wrap;html=1;" vertex="1" parent="1">
          <mxGeometry x="-315" y="1730" width="120" height="60" as="geometry" />
        </mxCell>
        <mxCell id="_PuXTlX4eswYH-ud0qcQ-27" value="" style="endArrow=classic;html=1;rounded=0;fontSize=12;startSize=8;endSize=8;curved=1;" edge="1" parent="1">
          <mxGeometry width="50" height="50" relative="1" as="geometry">
            <mxPoint x="134.60000000000002" y="1450" as="sourcePoint" />
            <mxPoint x="134.60000000000002" y="1470" as="targetPoint" />
          </mxGeometry>
        </mxCell>
        <mxCell id="_PuXTlX4eswYH-ud0qcQ-28" style="edgeStyle=orthogonalEdgeStyle;rounded=0;orthogonalLoop=1;jettySize=auto;html=1;exitX=0.5;exitY=1;exitDx=0;exitDy=0;entryX=0.5;entryY=0;entryDx=0;entryDy=0;" edge="1" parent="1" source="_PuXTlX4eswYH-ud0qcQ-29">
          <mxGeometry relative="1" as="geometry">
            <mxPoint x="135" y="1610" as="targetPoint" />
          </mxGeometry>
        </mxCell>
        <mxCell id="_PuXTlX4eswYH-ud0qcQ-29" value="When Attack key is pressed" style="rhombus;whiteSpace=wrap;html=1;" vertex="1" parent="1">
          <mxGeometry x="65" y="1470" width="140" height="80" as="geometry" />
        </mxCell>
        <mxCell id="_PuXTlX4eswYH-ud0qcQ-30" style="edgeStyle=orthogonalEdgeStyle;rounded=0;orthogonalLoop=1;jettySize=auto;html=1;exitX=0.5;exitY=1;exitDx=0;exitDy=0;" edge="1" parent="1" source="_PuXTlX4eswYH-ud0qcQ-32">
          <mxGeometry relative="1" as="geometry">
            <mxPoint x="25" y="1760" as="targetPoint" />
            <mxPoint x="135" y="1730" as="sourcePoint" />
          </mxGeometry>
        </mxCell>
        <mxCell id="_PuXTlX4eswYH-ud0qcQ-31" value="" style="edgeStyle=orthogonalEdgeStyle;rounded=0;orthogonalLoop=1;jettySize=auto;html=1;" edge="1" parent="1" source="_PuXTlX4eswYH-ud0qcQ-32" target="_PuXTlX4eswYH-ud0qcQ-34">
          <mxGeometry relative="1" as="geometry" />
        </mxCell>
        <mxCell id="_PuXTlX4eswYH-ud0qcQ-32" value="Is equipped weapon type&lt;div&gt;&amp;nbsp;projectile or melee&lt;/div&gt;" style="rhombus;whiteSpace=wrap;html=1;rounded=0;" vertex="1" parent="1">
          <mxGeometry x="45" y="1610" width="180" height="80" as="geometry" />
        </mxCell>
        <mxCell id="_PuXTlX4eswYH-ud0qcQ-33" value="" style="edgeStyle=orthogonalEdgeStyle;rounded=0;orthogonalLoop=1;jettySize=auto;html=1;" edge="1" parent="1" source="_PuXTlX4eswYH-ud0qcQ-34" target="_PuXTlX4eswYH-ud0qcQ-43">
          <mxGeometry relative="1" as="geometry" />
        </mxCell>
        <mxCell id="_PuXTlX4eswYH-ud0qcQ-34" value="If melee, create a slashing object with damage stats from weapon, when enemy touch&amp;nbsp;" style="whiteSpace=wrap;html=1;rounded=0;" vertex="1" parent="1">
          <mxGeometry x="168" y="1760" width="170" height="50" as="geometry" />
        </mxCell>
        <mxCell id="_PuXTlX4eswYH-ud0qcQ-35" value="" style="edgeStyle=orthogonalEdgeStyle;rounded=0;orthogonalLoop=1;jettySize=auto;html=1;" edge="1" parent="1" source="_PuXTlX4eswYH-ud0qcQ-36" target="_PuXTlX4eswYH-ud0qcQ-40">
          <mxGeometry relative="1" as="geometry" />
        </mxCell>
        <mxCell id="_PuXTlX4eswYH-ud0qcQ-36" value="If Projectile, create a projectile with speed stats and damage stats from weapon&amp;nbsp;" style="rounded=0;whiteSpace=wrap;html=1;" vertex="1" parent="1">
          <mxGeometry x="-35" y="1760" width="120" height="60" as="geometry" />
        </mxCell>
        <mxCell id="_PuXTlX4eswYH-ud0qcQ-37" style="edgeStyle=orthogonalEdgeStyle;rounded=0;orthogonalLoop=1;jettySize=auto;html=1;exitX=0.5;exitY=1;exitDx=0;exitDy=0;" edge="1" parent="1" source="_PuXTlX4eswYH-ud0qcQ-34" target="_PuXTlX4eswYH-ud0qcQ-34">
          <mxGeometry relative="1" as="geometry" />
        </mxCell>
        <mxCell id="_PuXTlX4eswYH-ud0qcQ-38" value="" style="edgeStyle=orthogonalEdgeStyle;rounded=0;orthogonalLoop=1;jettySize=auto;html=1;" edge="1" parent="1" source="_PuXTlX4eswYH-ud0qcQ-40" target="_PuXTlX4eswYH-ud0qcQ-41">
          <mxGeometry relative="1" as="geometry" />
        </mxCell>
        <mxCell id="_PuXTlX4eswYH-ud0qcQ-39" value="" style="edgeStyle=orthogonalEdgeStyle;rounded=0;orthogonalLoop=1;jettySize=auto;html=1;exitX=1;exitY=0.5;exitDx=0;exitDy=0;" edge="1" parent="1" source="_PuXTlX4eswYH-ud0qcQ-40" target="_PuXTlX4eswYH-ud0qcQ-42">
          <mxGeometry relative="1" as="geometry" />
        </mxCell>
        <mxCell id="_PuXTlX4eswYH-ud0qcQ-40" value="Did the projectile hit&lt;div&gt;the enemy before a set time&lt;/div&gt;" style="rhombus;whiteSpace=wrap;html=1;rounded=0;" vertex="1" parent="1">
          <mxGeometry x="-75" y="1850" width="200" height="90" as="geometry" />
        </mxCell>
        <mxCell id="_PuXTlX4eswYH-ud0qcQ-41" value="Delt damage to enemy health point. Delete projectile" style="whiteSpace=wrap;html=1;rounded=0;" vertex="1" parent="1">
          <mxGeometry x="-36" y="1980" width="120" height="60" as="geometry" />
        </mxCell>
        <mxCell id="_PuXTlX4eswYH-ud0qcQ-42" value="Delete Projectile" style="whiteSpace=wrap;html=1;rounded=0;" vertex="1" parent="1">
          <mxGeometry x="118.75" y="1960" width="120" height="60" as="geometry" />
        </mxCell>
        <mxCell id="_PuXTlX4eswYH-ud0qcQ-43" value="Deal damage to enemy according with weapon damage stats" style="whiteSpace=wrap;html=1;rounded=0;" vertex="1" parent="1">
          <mxGeometry x="275" y="1910" width="120" height="60" as="geometry" />
        </mxCell>
        <mxCell id="_PuXTlX4eswYH-ud0qcQ-44" value="" style="endArrow=classic;html=1;rounded=0;fontSize=12;startSize=8;endSize=8;curved=1;" edge="1" parent="1">
          <mxGeometry width="50" height="50" relative="1" as="geometry">
            <mxPoint x="416.4100000000001" y="1450" as="sourcePoint" />
            <mxPoint x="416.4100000000001" y="1470" as="targetPoint" />
          </mxGeometry>
        </mxCell>
        <mxCell id="_PuXTlX4eswYH-ud0qcQ-45" value="" style="edgeStyle=orthogonalEdgeStyle;rounded=0;orthogonalLoop=1;jettySize=auto;html=1;" edge="1" parent="1" source="_PuXTlX4eswYH-ud0qcQ-46" target="_PuXTlX4eswYH-ud0qcQ-47">
          <mxGeometry relative="1" as="geometry" />
        </mxCell>
        <mxCell id="_PuXTlX4eswYH-ud0qcQ-46" value="When player collides with enemy attack" style="rhombus;whiteSpace=wrap;html=1;" vertex="1" parent="1">
          <mxGeometry x="295" y="1470" width="245" height="90" as="geometry" />
        </mxCell>
        <mxCell id="_PuXTlX4eswYH-ud0qcQ-47" value="Reduce Player&#39;s HP based on attack damage" style="whiteSpace=wrap;html=1;" vertex="1" parent="1">
          <mxGeometry x="357" y="1610" width="120" height="60" as="geometry" />
        </mxCell>
        <mxCell id="_PuXTlX4eswYH-ud0qcQ-48" value="" style="endArrow=classic;html=1;rounded=0;fontSize=12;startSize=8;endSize=8;curved=1;" edge="1" parent="1">
          <mxGeometry width="50" height="50" relative="1" as="geometry">
            <mxPoint x="706.4100000000001" y="1450" as="sourcePoint" />
            <mxPoint x="706.4100000000001" y="1470" as="targetPoint" />
          </mxGeometry>
        </mxCell>
        <mxCell id="_PuXTlX4eswYH-ud0qcQ-49" value="" style="edgeStyle=orthogonalEdgeStyle;rounded=0;orthogonalLoop=1;jettySize=auto;html=1;" edge="1" parent="1" source="_PuXTlX4eswYH-ud0qcQ-50" target="_PuXTlX4eswYH-ud0qcQ-52">
          <mxGeometry relative="1" as="geometry" />
        </mxCell>
        <mxCell id="_PuXTlX4eswYH-ud0qcQ-50" value="When Player HP reach 0" style="rhombus;whiteSpace=wrap;html=1;" vertex="1" parent="1">
          <mxGeometry x="585" y="1470" width="245" height="90" as="geometry" />
        </mxCell>
        <mxCell id="_PuXTlX4eswYH-ud0qcQ-51" value="" style="edgeStyle=orthogonalEdgeStyle;rounded=0;orthogonalLoop=1;jettySize=auto;html=1;" edge="1" parent="1" source="_PuXTlX4eswYH-ud0qcQ-52" target="_PuXTlX4eswYH-ud0qcQ-53">
          <mxGeometry relative="1" as="geometry" />
        </mxCell>
        <mxCell id="_PuXTlX4eswYH-ud0qcQ-52" value="Play death animation" style="whiteSpace=wrap;html=1;" vertex="1" parent="1">
          <mxGeometry x="647.5" y="1610" width="120" height="60" as="geometry" />
        </mxCell>
        <mxCell id="_PuXTlX4eswYH-ud0qcQ-53" value="Bring player to most recent checkpoint(spawn point if there is none)" style="whiteSpace=wrap;html=1;" vertex="1" parent="1">
          <mxGeometry x="631.25" y="1750" width="152.5" height="60" as="geometry" />
        </mxCell>
        <mxCell id="_PuXTlX4eswYH-ud0qcQ-54" value="" style="endArrow=classic;html=1;rounded=0;fontSize=12;startSize=8;endSize=8;curved=1;" edge="1" parent="1">
          <mxGeometry width="50" height="50" relative="1" as="geometry">
            <mxPoint x="986.4100000000001" y="1450" as="sourcePoint" />
            <mxPoint x="986.4100000000001" y="1470" as="targetPoint" />
          </mxGeometry>
        </mxCell>
        <mxCell id="_PuXTlX4eswYH-ud0qcQ-55" value="" style="edgeStyle=orthogonalEdgeStyle;rounded=0;orthogonalLoop=1;jettySize=auto;html=1;" edge="1" parent="1" source="_PuXTlX4eswYH-ud0qcQ-56" target="_PuXTlX4eswYH-ud0qcQ-57">
          <mxGeometry relative="1" as="geometry" />
        </mxCell>
        <mxCell id="_PuXTlX4eswYH-ud0qcQ-56" value="When player touch&lt;div&gt;end checkpoint&lt;/div&gt;" style="rhombus;whiteSpace=wrap;html=1;" vertex="1" parent="1">
          <mxGeometry x="865" y="1470" width="245" height="90" as="geometry" />
        </mxCell>
        <mxCell id="_PuXTlX4eswYH-ud0qcQ-57" value="Bring to next level" style="whiteSpace=wrap;html=1;" vertex="1" parent="1">
          <mxGeometry x="927.5" y="1610" width="120" height="60" as="geometry" />
        </mxCell>
        <mxCell id="_PuXTlX4eswYH-ud0qcQ-58" value="" style="endArrow=classic;html=1;rounded=0;fontSize=12;startSize=8;endSize=8;curved=1;" edge="1" parent="1">
          <mxGeometry width="50" height="50" relative="1" as="geometry">
            <mxPoint x="1291.41" y="1450" as="sourcePoint" />
            <mxPoint x="1291.41" y="1470" as="targetPoint" />
          </mxGeometry>
        </mxCell>
        <mxCell id="_PuXTlX4eswYH-ud0qcQ-59" value="" style="edgeStyle=orthogonalEdgeStyle;rounded=0;orthogonalLoop=1;jettySize=auto;html=1;" edge="1" parent="1" source="_PuXTlX4eswYH-ud0qcQ-61" target="_PuXTlX4eswYH-ud0qcQ-62">
          <mxGeometry relative="1" as="geometry" />
        </mxCell>
        <mxCell id="_PuXTlX4eswYH-ud0qcQ-60" value="" style="edgeStyle=orthogonalEdgeStyle;rounded=0;orthogonalLoop=1;jettySize=auto;html=1;" edge="1" parent="1" source="_PuXTlX4eswYH-ud0qcQ-61" target="_PuXTlX4eswYH-ud0qcQ-63">
          <mxGeometry relative="1" as="geometry" />
        </mxCell>
        <mxCell id="_PuXTlX4eswYH-ud0qcQ-61" value="When an enemy is defeated" style="rhombus;whiteSpace=wrap;html=1;" vertex="1" parent="1">
          <mxGeometry x="1170" y="1470" width="245" height="90" as="geometry" />
        </mxCell>
        <mxCell id="_PuXTlX4eswYH-ud0qcQ-62" value="Give player 100 coins" style="whiteSpace=wrap;html=1;" vertex="1" parent="1">
          <mxGeometry x="1090" y="1680" width="120" height="60" as="geometry" />
        </mxCell>
        <mxCell id="_PuXTlX4eswYH-ud0qcQ-63" value="Give player 250 coins" style="whiteSpace=wrap;html=1;" vertex="1" parent="1">
          <mxGeometry x="1380" y="1680" width="120" height="60" as="geometry" />
        </mxCell>
        <mxCell id="_PuXTlX4eswYH-ud0qcQ-64" value="Normal" style="text;html=1;align=center;verticalAlign=middle;whiteSpace=wrap;rounded=0;" vertex="1" parent="1">
          <mxGeometry x="1140" y="1635" width="60" height="30" as="geometry" />
        </mxCell>
        <mxCell id="_PuXTlX4eswYH-ud0qcQ-65" value="Boss" style="text;html=1;align=center;verticalAlign=middle;whiteSpace=wrap;rounded=0;" vertex="1" parent="1">
          <mxGeometry x="1430" y="1635" width="60" height="30" as="geometry" />
        </mxCell>
        <mxCell id="_PuXTlX4eswYH-ud0qcQ-66" value="" style="endArrow=classic;html=1;rounded=0;fontSize=12;startSize=8;endSize=8;curved=1;" edge="1" parent="1">
          <mxGeometry width="50" height="50" relative="1" as="geometry">
            <mxPoint x="1671.4099999999999" y="1450" as="sourcePoint" />
            <mxPoint x="1671.4099999999999" y="1470" as="targetPoint" />
          </mxGeometry>
        </mxCell>
        <mxCell id="_PuXTlX4eswYH-ud0qcQ-67" value="" style="edgeStyle=orthogonalEdgeStyle;rounded=0;orthogonalLoop=1;jettySize=auto;html=1;" edge="1" parent="1" source="_PuXTlX4eswYH-ud0qcQ-68" target="_PuXTlX4eswYH-ud0qcQ-70">
          <mxGeometry relative="1" as="geometry" />
        </mxCell>
        <mxCell id="_PuXTlX4eswYH-ud0qcQ-68" value="When player press RMB (Dodge)" style="rhombus;whiteSpace=wrap;html=1;" vertex="1" parent="1">
          <mxGeometry x="1550" y="1470" width="245" height="90" as="geometry" />
        </mxCell>
        <mxCell id="_PuXTlX4eswYH-ud0qcQ-69" value="" style="edgeStyle=orthogonalEdgeStyle;rounded=0;orthogonalLoop=1;jettySize=auto;html=1;" edge="1" parent="1" source="_PuXTlX4eswYH-ud0qcQ-70" target="_PuXTlX4eswYH-ud0qcQ-156">
          <mxGeometry relative="1" as="geometry" />
        </mxCell>
        <mxCell id="_PuXTlX4eswYH-ud0qcQ-70" value="Players perform a dash towards the direction they are currently facing" style="whiteSpace=wrap;html=1;" vertex="1" parent="1">
          <mxGeometry x="1612.5" y="1600" width="120" height="60" as="geometry" />
        </mxCell>
        <mxCell id="_PuXTlX4eswYH-ud0qcQ-71" value="" style="endArrow=classic;html=1;rounded=0;fontSize=12;startSize=8;endSize=8;curved=1;" edge="1" parent="1">
          <mxGeometry width="50" height="50" relative="1" as="geometry">
            <mxPoint x="2049.41" y="1450" as="sourcePoint" />
            <mxPoint x="2049.41" y="1470" as="targetPoint" />
          </mxGeometry>
        </mxCell>
        <mxCell id="_PuXTlX4eswYH-ud0qcQ-72" value="" style="edgeStyle=orthogonalEdgeStyle;rounded=0;orthogonalLoop=1;jettySize=auto;html=1;" edge="1" parent="1" source="_PuXTlX4eswYH-ud0qcQ-73" target="_PuXTlX4eswYH-ud0qcQ-77">
          <mxGeometry relative="1" as="geometry" />
        </mxCell>
        <mxCell id="_PuXTlX4eswYH-ud0qcQ-73" value="When player press ability weapon" style="rhombus;whiteSpace=wrap;html=1;" vertex="1" parent="1">
          <mxGeometry x="1928" y="1470" width="245" height="90" as="geometry" />
        </mxCell>
        <mxCell id="_PuXTlX4eswYH-ud0qcQ-74" value="" style="edgeStyle=orthogonalEdgeStyle;rounded=0;orthogonalLoop=1;jettySize=auto;html=1;" edge="1" parent="1" source="_PuXTlX4eswYH-ud0qcQ-77" target="_PuXTlX4eswYH-ud0qcQ-79">
          <mxGeometry relative="1" as="geometry" />
        </mxCell>
        <mxCell id="_PuXTlX4eswYH-ud0qcQ-75" value="" style="edgeStyle=orthogonalEdgeStyle;rounded=0;orthogonalLoop=1;jettySize=auto;html=1;" edge="1" parent="1" source="_PuXTlX4eswYH-ud0qcQ-77" target="_PuXTlX4eswYH-ud0qcQ-81">
          <mxGeometry relative="1" as="geometry" />
        </mxCell>
        <mxCell id="_PuXTlX4eswYH-ud0qcQ-76" value="" style="edgeStyle=orthogonalEdgeStyle;rounded=0;orthogonalLoop=1;jettySize=auto;html=1;" edge="1" parent="1" source="_PuXTlX4eswYH-ud0qcQ-77" target="_PuXTlX4eswYH-ud0qcQ-83">
          <mxGeometry relative="1" as="geometry" />
        </mxCell>
        <mxCell id="_PuXTlX4eswYH-ud0qcQ-77" value="Check current weapon type" style="rhombus;whiteSpace=wrap;html=1;" vertex="1" parent="1">
          <mxGeometry x="1928" y="1620" width="245" height="91" as="geometry" />
        </mxCell>
        <mxCell id="_PuXTlX4eswYH-ud0qcQ-78" value="" style="edgeStyle=orthogonalEdgeStyle;rounded=0;orthogonalLoop=1;jettySize=auto;html=1;" edge="1" parent="1" source="_PuXTlX4eswYH-ud0qcQ-79" target="_PuXTlX4eswYH-ud0qcQ-88">
          <mxGeometry relative="1" as="geometry" />
        </mxCell>
        <mxCell id="_PuXTlX4eswYH-ud0qcQ-79" value="Increase fire speed for X amount of sec" style="whiteSpace=wrap;html=1;" vertex="1" parent="1">
          <mxGeometry x="1830" y="1850" width="120" height="60" as="geometry" />
        </mxCell>
        <mxCell id="_PuXTlX4eswYH-ud0qcQ-80" value="" style="edgeStyle=orthogonalEdgeStyle;rounded=0;orthogonalLoop=1;jettySize=auto;html=1;" edge="1" parent="1" source="_PuXTlX4eswYH-ud0qcQ-81">
          <mxGeometry relative="1" as="geometry">
            <mxPoint x="2050.5" y="1990" as="targetPoint" />
          </mxGeometry>
        </mxCell>
        <mxCell id="_PuXTlX4eswYH-ud0qcQ-81" value="Reduce reload speed for X amount of sec" style="whiteSpace=wrap;html=1;" vertex="1" parent="1">
          <mxGeometry x="1990.5" y="1850" width="120" height="60" as="geometry" />
        </mxCell>
        <mxCell id="_PuXTlX4eswYH-ud0qcQ-82" value="" style="edgeStyle=orthogonalEdgeStyle;rounded=0;orthogonalLoop=1;jettySize=auto;html=1;" edge="1" parent="1" source="_PuXTlX4eswYH-ud0qcQ-83">
          <mxGeometry relative="1" as="geometry">
            <mxPoint x="2210.000000000001" y="1990" as="targetPoint" />
          </mxGeometry>
        </mxCell>
        <mxCell id="_PuXTlX4eswYH-ud0qcQ-83" value="Increase damage and range of weapon for X amount of sec" style="whiteSpace=wrap;html=1;" vertex="1" parent="1">
          <mxGeometry x="2150" y="1850" width="120" height="60" as="geometry" />
        </mxCell>
        <mxCell id="_PuXTlX4eswYH-ud0qcQ-84" value="Handgun" style="text;html=1;align=center;verticalAlign=middle;whiteSpace=wrap;rounded=0;" vertex="1" parent="1">
          <mxGeometry x="1890" y="1800" width="60" height="30" as="geometry" />
        </mxCell>
        <mxCell id="_PuXTlX4eswYH-ud0qcQ-85" value="AR" style="text;html=1;align=center;verticalAlign=middle;whiteSpace=wrap;rounded=0;" vertex="1" parent="1">
          <mxGeometry x="2035" y="1800" width="60" height="30" as="geometry" />
        </mxCell>
        <mxCell id="_PuXTlX4eswYH-ud0qcQ-86" value="Melee" style="text;html=1;align=center;verticalAlign=middle;whiteSpace=wrap;rounded=0;" vertex="1" parent="1">
          <mxGeometry x="2200" y="1800" width="60" height="30" as="geometry" />
        </mxCell>
        <mxCell id="_PuXTlX4eswYH-ud0qcQ-87" value="" style="edgeStyle=orthogonalEdgeStyle;rounded=0;orthogonalLoop=1;jettySize=auto;html=1;" edge="1" parent="1" source="_PuXTlX4eswYH-ud0qcQ-88" target="_PuXTlX4eswYH-ud0qcQ-157">
          <mxGeometry relative="1" as="geometry" />
        </mxCell>
        <mxCell id="_PuXTlX4eswYH-ud0qcQ-88" value="Start Cooldown Timer for X amount of sec" style="whiteSpace=wrap;html=1;" vertex="1" parent="1">
          <mxGeometry x="1830" y="1990" width="120" height="60" as="geometry" />
        </mxCell>
        <mxCell id="_PuXTlX4eswYH-ud0qcQ-89" value="Start Cooldown Timer for X amount of sec" style="whiteSpace=wrap;html=1;" vertex="1" parent="1">
          <mxGeometry x="1990.5" y="1990" width="120" height="60" as="geometry" />
        </mxCell>
        <mxCell id="_PuXTlX4eswYH-ud0qcQ-90" value="Start Cooldown Timer for X amount of sec" style="whiteSpace=wrap;html=1;" vertex="1" parent="1">
          <mxGeometry x="2150" y="1990" width="120" height="60" as="geometry" />
        </mxCell>
        <mxCell id="_PuXTlX4eswYH-ud0qcQ-91" value="" style="endArrow=none;html=1;rounded=0;fontSize=12;startSize=8;endSize=8;curved=1;" edge="1" parent="1">
          <mxGeometry width="50" height="50" relative="1" as="geometry">
            <mxPoint x="-335" y="1449" as="sourcePoint" />
            <mxPoint x="2653" y="1449" as="targetPoint" />
          </mxGeometry>
        </mxCell>
        <mxCell id="_PuXTlX4eswYH-ud0qcQ-92" value="" style="endArrow=none;html=1;rounded=0;fontSize=12;startSize=8;endSize=8;curved=1;" edge="1" parent="1">
          <mxGeometry width="50" height="50" relative="1" as="geometry">
            <mxPoint x="-335" y="1450" as="sourcePoint" />
            <mxPoint x="3719.7931034482754" y="1449" as="targetPoint" />
          </mxGeometry>
        </mxCell>
        <mxCell id="_PuXTlX4eswYH-ud0qcQ-93" value="" style="endArrow=classic;html=1;rounded=0;fontSize=12;startSize=8;endSize=8;curved=1;" edge="1" parent="1">
          <mxGeometry width="50" height="50" relative="1" as="geometry">
            <mxPoint x="2430.41" y="1450" as="sourcePoint" />
            <mxPoint x="2430.41" y="1470" as="targetPoint" />
          </mxGeometry>
        </mxCell>
        <mxCell id="_PuXTlX4eswYH-ud0qcQ-94" value="" style="edgeStyle=orthogonalEdgeStyle;rounded=0;orthogonalLoop=1;jettySize=auto;html=1;" edge="1" parent="1" source="_PuXTlX4eswYH-ud0qcQ-95" target="_PuXTlX4eswYH-ud0qcQ-97">
          <mxGeometry relative="1" as="geometry" />
        </mxCell>
        <mxCell id="_PuXTlX4eswYH-ud0qcQ-95" value="When player enters a new room" style="rhombus;whiteSpace=wrap;html=1;" vertex="1" parent="1">
          <mxGeometry x="2308" y="1470" width="245" height="90" as="geometry" />
        </mxCell>
        <mxCell id="_PuXTlX4eswYH-ud0qcQ-96" value="" style="edgeStyle=orthogonalEdgeStyle;rounded=0;orthogonalLoop=1;jettySize=auto;html=1;" edge="1" parent="1" source="_PuXTlX4eswYH-ud0qcQ-97" target="_PuXTlX4eswYH-ud0qcQ-99">
          <mxGeometry relative="1" as="geometry" />
        </mxCell>
        <mxCell id="_PuXTlX4eswYH-ud0qcQ-97" value="Force player to be in that room until all enemies are eliminated" style="whiteSpace=wrap;html=1;" vertex="1" parent="1">
          <mxGeometry x="2370.5" y="1580" width="120" height="60" as="geometry" />
        </mxCell>
        <mxCell id="_PuXTlX4eswYH-ud0qcQ-98" value="" style="edgeStyle=orthogonalEdgeStyle;rounded=0;orthogonalLoop=1;jettySize=auto;html=1;" edge="1" parent="1" source="_PuXTlX4eswYH-ud0qcQ-99" target="_PuXTlX4eswYH-ud0qcQ-132">
          <mxGeometry relative="1" as="geometry" />
        </mxCell>
        <mxCell id="_PuXTlX4eswYH-ud0qcQ-99" value="Door to the next room are unable to unlock till the prior requirements are fufilled" style="whiteSpace=wrap;html=1;" vertex="1" parent="1">
          <mxGeometry x="2365.25" y="1665" width="130.5" height="80" as="geometry" />
        </mxCell>
        <mxCell id="_PuXTlX4eswYH-ud0qcQ-100" value="" style="endArrow=classic;html=1;rounded=0;fontSize=12;startSize=8;endSize=8;curved=1;" edge="1" parent="1">
          <mxGeometry width="50" height="50" relative="1" as="geometry">
            <mxPoint x="2749.31" y="1450" as="sourcePoint" />
            <mxPoint x="2749.31" y="1470" as="targetPoint" />
          </mxGeometry>
        </mxCell>
        <mxCell id="_PuXTlX4eswYH-ud0qcQ-101" value="" style="edgeStyle=orthogonalEdgeStyle;rounded=0;orthogonalLoop=1;jettySize=auto;html=1;" edge="1" parent="1" source="_PuXTlX4eswYH-ud0qcQ-102" target="_PuXTlX4eswYH-ud0qcQ-104">
          <mxGeometry relative="1" as="geometry" />
        </mxCell>
        <mxCell id="_PuXTlX4eswYH-ud0qcQ-102" value="When the Escape key is pressed" style="rhombus;whiteSpace=wrap;html=1;" vertex="1" parent="1">
          <mxGeometry x="2627" y="1470" width="245" height="90" as="geometry" />
        </mxCell>
        <mxCell id="_PuXTlX4eswYH-ud0qcQ-103" value="" style="edgeStyle=orthogonalEdgeStyle;rounded=0;orthogonalLoop=1;jettySize=auto;html=1;" edge="1" parent="1" source="_PuXTlX4eswYH-ud0qcQ-104" target="_PuXTlX4eswYH-ud0qcQ-111">
          <mxGeometry relative="1" as="geometry" />
        </mxCell>
        <mxCell id="_PuXTlX4eswYH-ud0qcQ-104" value="freeze game&amp;nbsp;&amp;nbsp;" style="whiteSpace=wrap;html=1;" vertex="1" parent="1">
          <mxGeometry x="2689.5" y="1600" width="120" height="60" as="geometry" />
        </mxCell>
        <mxCell id="_PuXTlX4eswYH-ud0qcQ-105" value="" style="edgeStyle=orthogonalEdgeStyle;rounded=0;orthogonalLoop=1;jettySize=auto;html=1;" edge="1" parent="1" source="_PuXTlX4eswYH-ud0qcQ-111">
          <mxGeometry relative="1" as="geometry">
            <mxPoint x="2529" y="1837.0043887147335" as="targetPoint" />
          </mxGeometry>
        </mxCell>
        <mxCell id="_PuXTlX4eswYH-ud0qcQ-106" value="" style="edgeStyle=orthogonalEdgeStyle;rounded=0;orthogonalLoop=1;jettySize=auto;html=1;" edge="1" parent="1" source="_PuXTlX4eswYH-ud0qcQ-111" target="_PuXTlX4eswYH-ud0qcQ-114">
          <mxGeometry relative="1" as="geometry" />
        </mxCell>
        <mxCell id="_PuXTlX4eswYH-ud0qcQ-107" value="" style="edgeStyle=orthogonalEdgeStyle;rounded=0;orthogonalLoop=1;jettySize=auto;html=1;" edge="1" parent="1" source="_PuXTlX4eswYH-ud0qcQ-111" target="_PuXTlX4eswYH-ud0qcQ-114">
          <mxGeometry relative="1" as="geometry" />
        </mxCell>
        <mxCell id="_PuXTlX4eswYH-ud0qcQ-108" value="" style="edgeStyle=orthogonalEdgeStyle;rounded=0;orthogonalLoop=1;jettySize=auto;html=1;" edge="1" parent="1" source="_PuXTlX4eswYH-ud0qcQ-111" target="_PuXTlX4eswYH-ud0qcQ-114">
          <mxGeometry relative="1" as="geometry" />
        </mxCell>
        <mxCell id="_PuXTlX4eswYH-ud0qcQ-109" value="" style="edgeStyle=orthogonalEdgeStyle;rounded=0;orthogonalLoop=1;jettySize=auto;html=1;" edge="1" parent="1" source="_PuXTlX4eswYH-ud0qcQ-111" target="_PuXTlX4eswYH-ud0qcQ-114">
          <mxGeometry relative="1" as="geometry" />
        </mxCell>
        <mxCell id="_PuXTlX4eswYH-ud0qcQ-110" value="" style="edgeStyle=orthogonalEdgeStyle;rounded=0;orthogonalLoop=1;jettySize=auto;html=1;" edge="1" parent="1" source="_PuXTlX4eswYH-ud0qcQ-111" target="_PuXTlX4eswYH-ud0qcQ-116">
          <mxGeometry relative="1" as="geometry" />
        </mxCell>
        <mxCell id="_PuXTlX4eswYH-ud0qcQ-111" value="Display pause screen&lt;div&gt;with option&amp;nbsp;&lt;/div&gt;" style="whiteSpace=wrap;html=1;" vertex="1" parent="1">
          <mxGeometry x="2658.74" y="1708" width="120" height="60" as="geometry" />
        </mxCell>
        <mxCell id="_PuXTlX4eswYH-ud0qcQ-112" value="" style="edgeStyle=orthogonalEdgeStyle;rounded=0;orthogonalLoop=1;jettySize=auto;html=1;" edge="1" parent="1" source="_PuXTlX4eswYH-ud0qcQ-113" target="_PuXTlX4eswYH-ud0qcQ-149">
          <mxGeometry relative="1" as="geometry" />
        </mxCell>
        <mxCell id="_PuXTlX4eswYH-ud0qcQ-113" value="When Player pressed&lt;div&gt;&amp;nbsp;resume button or ESC&amp;nbsp;&lt;/div&gt;" style="rhombus;whiteSpace=wrap;html=1;" vertex="1" parent="1">
          <mxGeometry x="2449" y="1837" width="159.5" height="70" as="geometry" />
        </mxCell>
        <mxCell id="_PuXTlX4eswYH-ud0qcQ-114" value="When player&amp;nbsp;&lt;div&gt;pressed quit&amp;nbsp;&lt;/div&gt;" style="rhombus;whiteSpace=wrap;html=1;" vertex="1" parent="1">
          <mxGeometry x="2824.24" y="1837" width="140.5" height="80" as="geometry" />
        </mxCell>
        <mxCell id="_PuXTlX4eswYH-ud0qcQ-115" value="" style="edgeStyle=orthogonalEdgeStyle;rounded=0;orthogonalLoop=1;jettySize=auto;html=1;" edge="1" parent="1" source="_PuXTlX4eswYH-ud0qcQ-116" target="_PuXTlX4eswYH-ud0qcQ-119">
          <mxGeometry relative="1" as="geometry" />
        </mxCell>
        <mxCell id="_PuXTlX4eswYH-ud0qcQ-116" value="When player&lt;div&gt;pressed restart&lt;/div&gt;" style="rhombus;whiteSpace=wrap;html=1;" vertex="1" parent="1">
          <mxGeometry x="2653.49" y="1837" width="130.5" height="80" as="geometry" />
        </mxCell>
        <mxCell id="_PuXTlX4eswYH-ud0qcQ-117" value="" style="edgeStyle=orthogonalEdgeStyle;rounded=0;orthogonalLoop=1;jettySize=auto;html=1;" edge="1" parent="1" source="_PuXTlX4eswYH-ud0qcQ-119" target="_PuXTlX4eswYH-ud0qcQ-120">
          <mxGeometry relative="1" as="geometry" />
        </mxCell>
        <mxCell id="_PuXTlX4eswYH-ud0qcQ-118" value="" style="edgeStyle=orthogonalEdgeStyle;rounded=0;orthogonalLoop=1;jettySize=auto;html=1;exitX=0.559;exitY=0.89;exitDx=0;exitDy=0;exitPerimeter=0;" edge="1" parent="1" source="_PuXTlX4eswYH-ud0qcQ-119" target="_PuXTlX4eswYH-ud0qcQ-121">
          <mxGeometry relative="1" as="geometry">
            <mxPoint x="2709.238461538461" y="2066.986422045387" as="sourcePoint" />
            <Array as="points">
              <mxPoint x="2719.24" y="2018" />
              <mxPoint x="2719.24" y="2067" />
              <mxPoint x="2800.24" y="2067" />
            </Array>
          </mxGeometry>
        </mxCell>
        <mxCell id="_PuXTlX4eswYH-ud0qcQ-119" value="Confirmation&lt;div&gt;for restart&lt;/div&gt;" style="rhombus;whiteSpace=wrap;html=1;" vertex="1" parent="1">
          <mxGeometry x="2653.49" y="1947" width="130.5" height="80" as="geometry" />
        </mxCell>
        <mxCell id="_PuXTlX4eswYH-ud0qcQ-120" value="Restart to the original versio" style="whiteSpace=wrap;html=1;" vertex="1" parent="1">
          <mxGeometry x="2659.24" y="2237" width="120" height="60" as="geometry" />
        </mxCell>
        <mxCell id="_PuXTlX4eswYH-ud0qcQ-121" value="Return to pause menu" style="whiteSpace=wrap;html=1;" vertex="1" parent="1">
          <mxGeometry x="2739.24" y="2106.9999999999995" width="120" height="60" as="geometry" />
        </mxCell>
        <mxCell id="_PuXTlX4eswYH-ud0qcQ-122" value="Yes" style="text;html=1;align=center;verticalAlign=middle;whiteSpace=wrap;rounded=0;" vertex="1" parent="1">
          <mxGeometry x="2649.24" y="2047" width="60" height="30" as="geometry" />
        </mxCell>
        <mxCell id="_PuXTlX4eswYH-ud0qcQ-123" value="No" style="text;html=1;align=center;verticalAlign=middle;resizable=0;points=[];autosize=1;strokeColor=none;fillColor=none;" vertex="1" parent="1">
          <mxGeometry x="2739.24" y="2045" width="40" height="30" as="geometry" />
        </mxCell>
        <mxCell id="_PuXTlX4eswYH-ud0qcQ-124" value="" style="edgeStyle=orthogonalEdgeStyle;rounded=0;orthogonalLoop=1;jettySize=auto;html=1;" edge="1" parent="1" target="_PuXTlX4eswYH-ud0qcQ-127">
          <mxGeometry relative="1" as="geometry">
            <mxPoint x="2894.49" y="1917" as="sourcePoint" />
          </mxGeometry>
        </mxCell>
        <mxCell id="_PuXTlX4eswYH-ud0qcQ-125" value="" style="edgeStyle=orthogonalEdgeStyle;rounded=0;orthogonalLoop=1;jettySize=auto;html=1;" edge="1" parent="1" source="_PuXTlX4eswYH-ud0qcQ-127" target="_PuXTlX4eswYH-ud0qcQ-128">
          <mxGeometry relative="1" as="geometry" />
        </mxCell>
        <mxCell id="_PuXTlX4eswYH-ud0qcQ-126" value="" style="edgeStyle=orthogonalEdgeStyle;rounded=0;orthogonalLoop=1;jettySize=auto;html=1;exitX=0.559;exitY=0.89;exitDx=0;exitDy=0;exitPerimeter=0;" edge="1" parent="1" source="_PuXTlX4eswYH-ud0qcQ-127">
          <mxGeometry relative="1" as="geometry">
            <mxPoint x="2884.488461538461" y="2066.986422045387" as="sourcePoint" />
            <Array as="points">
              <mxPoint x="2894.49" y="2018" />
              <mxPoint x="2894.49" y="2067" />
              <mxPoint x="2975.49" y="2067" />
            </Array>
            <mxPoint x="2975.4799999999996" y="2106.9999999999995" as="targetPoint" />
          </mxGeometry>
        </mxCell>
        <mxCell id="_PuXTlX4eswYH-ud0qcQ-127" value="Confirmation&lt;div&gt;for restart&lt;/div&gt;" style="rhombus;whiteSpace=wrap;html=1;" vertex="1" parent="1">
          <mxGeometry x="2828.74" y="1947" width="130.5" height="80" as="geometry" />
        </mxCell>
        <mxCell id="_PuXTlX4eswYH-ud0qcQ-128" value="Exit the Game&amp;nbsp;" style="whiteSpace=wrap;html=1;" vertex="1" parent="1">
          <mxGeometry x="2833.99" y="2237" width="120" height="60" as="geometry" />
        </mxCell>
        <mxCell id="_PuXTlX4eswYH-ud0qcQ-129" value="Return to pause menu" style="whiteSpace=wrap;html=1;" vertex="1" parent="1">
          <mxGeometry x="2945.25" y="2109.9999999999995" width="120" height="60" as="geometry" />
        </mxCell>
        <mxCell id="_PuXTlX4eswYH-ud0qcQ-130" value="Yes" style="text;html=1;align=center;verticalAlign=middle;whiteSpace=wrap;rounded=0;" vertex="1" parent="1">
          <mxGeometry x="2824.49" y="2047" width="60" height="30" as="geometry" />
        </mxCell>
        <mxCell id="_PuXTlX4eswYH-ud0qcQ-131" value="No" style="text;html=1;align=center;verticalAlign=middle;resizable=0;points=[];autosize=1;strokeColor=none;fillColor=none;" vertex="1" parent="1">
          <mxGeometry x="2914.49" y="2045" width="40" height="30" as="geometry" />
        </mxCell>
        <mxCell id="_PuXTlX4eswYH-ud0qcQ-132" value="Door to the previous room are also temporary closed off" style="whiteSpace=wrap;html=1;" vertex="1" parent="1">
          <mxGeometry x="2365.75" y="1780" width="130" height="70" as="geometry" />
        </mxCell>
        <mxCell id="_PuXTlX4eswYH-ud0qcQ-133" value="" style="endArrow=classic;html=1;rounded=0;fontSize=12;startSize=8;endSize=8;curved=1;" edge="1" parent="1">
          <mxGeometry width="50" height="50" relative="1" as="geometry">
            <mxPoint x="3288.31" y="1451" as="sourcePoint" />
            <mxPoint x="3288.31" y="1471" as="targetPoint" />
          </mxGeometry>
        </mxCell>
        <mxCell id="_PuXTlX4eswYH-ud0qcQ-134" value="" style="edgeStyle=orthogonalEdgeStyle;rounded=0;orthogonalLoop=1;jettySize=auto;html=1;" edge="1" parent="1" source="_PuXTlX4eswYH-ud0qcQ-135" target="_PuXTlX4eswYH-ud0qcQ-137">
          <mxGeometry relative="1" as="geometry" />
        </mxCell>
        <mxCell id="_PuXTlX4eswYH-ud0qcQ-135" value="Enemies Interaction" style="rounded=0;whiteSpace=wrap;html=1;" vertex="1" parent="1">
          <mxGeometry x="3179" y="1471" width="217.5" height="60" as="geometry" />
        </mxCell>
        <mxCell id="_PuXTlX4eswYH-ud0qcQ-136" value="" style="edgeStyle=orthogonalEdgeStyle;rounded=0;orthogonalLoop=1;jettySize=auto;html=1;" edge="1" parent="1" source="_PuXTlX4eswYH-ud0qcQ-137" target="_PuXTlX4eswYH-ud0qcQ-140">
          <mxGeometry relative="1" as="geometry" />
        </mxCell>
        <mxCell id="_PuXTlX4eswYH-ud0qcQ-137" value="When the player enter the enemies FOV,&amp;nbsp; begin to target towards the player" style="whiteSpace=wrap;html=1;rounded=0;" vertex="1" parent="1">
          <mxGeometry x="3227.75" y="1581" width="120" height="60" as="geometry" />
        </mxCell>
        <mxCell id="_PuXTlX4eswYH-ud0qcQ-138" value="" style="edgeStyle=orthogonalEdgeStyle;rounded=0;orthogonalLoop=1;jettySize=auto;html=1;" edge="1" parent="1" source="_PuXTlX4eswYH-ud0qcQ-140" target="_PuXTlX4eswYH-ud0qcQ-142">
          <mxGeometry relative="1" as="geometry" />
        </mxCell>
        <mxCell id="_PuXTlX4eswYH-ud0qcQ-139" value="" style="edgeStyle=orthogonalEdgeStyle;rounded=0;orthogonalLoop=1;jettySize=auto;html=1;" edge="1" parent="1" source="_PuXTlX4eswYH-ud0qcQ-140" target="_PuXTlX4eswYH-ud0qcQ-142">
          <mxGeometry relative="1" as="geometry" />
        </mxCell>
        <mxCell id="_PuXTlX4eswYH-ud0qcQ-140" value="Melee or&amp;nbsp;&lt;div&gt;Projectile enemy&lt;/div&gt;" style="rhombus;whiteSpace=wrap;html=1;rounded=0;" vertex="1" parent="1">
          <mxGeometry x="3219.62" y="1674" width="136.25" height="85" as="geometry" />
        </mxCell>
        <mxCell id="_PuXTlX4eswYH-ud0qcQ-141" value="" style="edgeStyle=orthogonalEdgeStyle;rounded=0;orthogonalLoop=1;jettySize=auto;html=1;" edge="1" parent="1" source="_PuXTlX4eswYH-ud0qcQ-142" target="_PuXTlX4eswYH-ud0qcQ-147">
          <mxGeometry relative="1" as="geometry" />
        </mxCell>
        <mxCell id="_PuXTlX4eswYH-ud0qcQ-142" value="Enemy start to walk toward player until they are in the effective attack range" style="whiteSpace=wrap;html=1;rounded=0;" vertex="1" parent="1">
          <mxGeometry x="3142.005" y="1798" width="120" height="60" as="geometry" />
        </mxCell>
        <mxCell id="_PuXTlX4eswYH-ud0qcQ-143" value="Melee" style="text;html=1;align=center;verticalAlign=middle;whiteSpace=wrap;rounded=0;" vertex="1" parent="1">
          <mxGeometry x="3207" y="1759" width="60" height="30" as="geometry" />
        </mxCell>
        <mxCell id="_PuXTlX4eswYH-ud0qcQ-144" value="" style="edgeStyle=orthogonalEdgeStyle;rounded=0;orthogonalLoop=1;jettySize=auto;html=1;" edge="1" parent="1">
          <mxGeometry relative="1" as="geometry">
            <mxPoint x="3287" y="1779.0042528735637" as="sourcePoint" />
            <mxPoint x="3370" y="1800" as="targetPoint" />
          </mxGeometry>
        </mxCell>
        <mxCell id="_PuXTlX4eswYH-ud0qcQ-145" value="Enemy begin to fire projectile. Depending on tier, attacks will be easier/harder to dodge" style="whiteSpace=wrap;html=1;rounded=0;" vertex="1" parent="1">
          <mxGeometry x="3305" y="1800" width="129.99" height="70" as="geometry" />
        </mxCell>
        <mxCell id="_PuXTlX4eswYH-ud0qcQ-146" value="Projectile" style="text;html=1;align=center;verticalAlign=middle;whiteSpace=wrap;rounded=0;" vertex="1" parent="1">
          <mxGeometry x="3295.87" y="1759" width="60" height="30" as="geometry" />
        </mxCell>
        <mxCell id="_PuXTlX4eswYH-ud0qcQ-147" value="Swing attacks at players(EXP: a sword spinning around enemy with x second for Tier 1)" style="whiteSpace=wrap;html=1;rounded=0;" vertex="1" parent="1">
          <mxGeometry x="3127.01" y="1900" width="150" height="80" as="geometry" />
        </mxCell>
        <mxCell id="_PuXTlX4eswYH-ud0qcQ-148" value="" style="edgeStyle=orthogonalEdgeStyle;rounded=0;orthogonalLoop=1;jettySize=auto;html=1;" edge="1" parent="1" source="_PuXTlX4eswYH-ud0qcQ-149" target="_PuXTlX4eswYH-ud0qcQ-150">
          <mxGeometry relative="1" as="geometry" />
        </mxCell>
        <mxCell id="_PuXTlX4eswYH-ud0qcQ-149" value="Unfreeze game" style="whiteSpace=wrap;html=1;" vertex="1" parent="1">
          <mxGeometry x="2468.75" y="1947" width="120" height="60" as="geometry" />
        </mxCell>
        <mxCell id="_PuXTlX4eswYH-ud0qcQ-150" value="Return to normal gameplay" style="whiteSpace=wrap;html=1;" vertex="1" parent="1">
          <mxGeometry x="2468.75" y="2087" width="120" height="60" as="geometry" />
        </mxCell>
        <mxCell id="_PuXTlX4eswYH-ud0qcQ-151" value="" style="edgeStyle=orthogonalEdgeStyle;rounded=0;orthogonalLoop=1;jettySize=auto;html=1;" edge="1" parent="1" source="_PuXTlX4eswYH-ud0qcQ-152" target="_PuXTlX4eswYH-ud0qcQ-154">
          <mxGeometry relative="1" as="geometry" />
        </mxCell>
        <mxCell id="_PuXTlX4eswYH-ud0qcQ-152" value="Interac button press near shop&amp;nbsp;" style="rhombus;whiteSpace=wrap;html=1;" vertex="1" parent="1">
          <mxGeometry x="-535" y="1470" width="160" height="79" as="geometry" />
        </mxCell>
        <mxCell id="_PuXTlX4eswYH-ud0qcQ-153" value="" style="edgeStyle=orthogonalEdgeStyle;rounded=0;orthogonalLoop=1;jettySize=auto;html=1;" edge="1" parent="1" source="_PuXTlX4eswYH-ud0qcQ-154" target="_PuXTlX4eswYH-ud0qcQ-155">
          <mxGeometry relative="1" as="geometry" />
        </mxCell>
        <mxCell id="_PuXTlX4eswYH-ud0qcQ-154" value="Open Shop menu" style="whiteSpace=wrap;html=1;" vertex="1" parent="1">
          <mxGeometry x="-515" y="1614" width="120" height="60" as="geometry" />
        </mxCell>
        <mxCell id="_PuXTlX4eswYH-ud0qcQ-155" value="Present upgrade and items option" style="whiteSpace=wrap;html=1;" vertex="1" parent="1">
          <mxGeometry x="-515" y="1754" width="120" height="60" as="geometry" />
        </mxCell>
        <mxCell id="_PuXTlX4eswYH-ud0qcQ-156" value="Reduce MP by 20" style="whiteSpace=wrap;html=1;" vertex="1" parent="1">
          <mxGeometry x="1612.5" y="1740" width="120" height="60" as="geometry" />
        </mxCell>
        <mxCell id="_PuXTlX4eswYH-ud0qcQ-157" value="Reduce MP by 20" style="whiteSpace=wrap;html=1;" vertex="1" parent="1">
          <mxGeometry x="1830" y="2130" width="120" height="60" as="geometry" />
        </mxCell>
        <mxCell id="_PuXTlX4eswYH-ud0qcQ-158" value="" style="edgeStyle=orthogonalEdgeStyle;rounded=0;orthogonalLoop=1;jettySize=auto;html=1;" edge="1" parent="1" target="_PuXTlX4eswYH-ud0qcQ-159">
          <mxGeometry relative="1" as="geometry">
            <mxPoint x="2050.5" y="2050" as="sourcePoint" />
          </mxGeometry>
        </mxCell>
        <mxCell id="_PuXTlX4eswYH-ud0qcQ-159" value="Reduce MP by 20" style="whiteSpace=wrap;html=1;" vertex="1" parent="1">
          <mxGeometry x="1990.5" y="2130" width="120" height="60" as="geometry" />
        </mxCell>
        <mxCell id="_PuXTlX4eswYH-ud0qcQ-160" value="" style="edgeStyle=orthogonalEdgeStyle;rounded=0;orthogonalLoop=1;jettySize=auto;html=1;" edge="1" parent="1" target="_PuXTlX4eswYH-ud0qcQ-161">
          <mxGeometry relative="1" as="geometry">
            <mxPoint x="2210" y="2050" as="sourcePoint" />
          </mxGeometry>
        </mxCell>
        <mxCell id="_PuXTlX4eswYH-ud0qcQ-161" value="Reduce MP by 20" style="whiteSpace=wrap;html=1;" vertex="1" parent="1">
          <mxGeometry x="2150" y="2130" width="120" height="60" as="geometry" />
        </mxCell>
        <mxCell id="_PuXTlX4eswYH-ud0qcQ-162" value="Player Spawn in to map" style="rounded=1;whiteSpace=wrap;html=1;" vertex="1" parent="1">
          <mxGeometry x="-395" y="1290" width="120" height="60" as="geometry" />
        </mxCell>
      </root>
    </mxGraphModel>
  </diagram>
</mxfile>
